# xmcd
#
# Track frame offsets:
#	151
#	9142
#	18292
#	30067
#	44717
#	52367
#	73546
#	87941
#	94319
#	120440
#	128947
#	143143
#	155700
#	168789
#	177496
#	189452
#	200328
#	211050
#	224673
#	236375
#
# Disc length: 3300 seconds
#
# Revision: 1
# Processed by: cddbd v1.5.2PL0 Copyright (c) Steve Scherf et al.
# Submitted via: audiograbber 1.83.01
#
DISCID=140ce214
DTITLE=Blind Willie McTell - King Of The Georgie Blues Disc 5 1940 - 1949
DYEAR=2009
DGENRE=Blues
TTITLE0=Monologue On Accidents
TTITLE1=Boll Weevil
TTITLE2=Delia
TTITLE3=Dying Crapshooter's Blues
TTITLE4=Will Fox
TTITLE5=I Got To Cross The River Jordan
TTITLE6=Monologue On Old Songs - Old Time Religion, Amen
TTITLE7=Amazing Grace
TTITLE8=Monologue On The History Of The Blues - Monologue On Life As A Maker Of
TTITLE8=Records - Monologue On Himself
TTITLE9=King Edward Blues
TTITLE10=Murderer's Home Blues
TTITLE11=Kill-It Kid Rag
TTITLE12=Chainey
TTITLE13=I Got To Cross The River O' Jordan
TTITLE14=Don't Forget It
TTITLE15=A To Z Blues
TTITLE16=Good Little Thing
TTITLE17=You Can't ( Get ) Stuff No More
TTITLE18=Love Changin' Blues
TTITLE19=Savannah Mama
EXTD=
EXTT0=
EXTT1=
EXTT2=
EXTT3=
EXTT4=
EXTT5=
EXTT6=
EXTT7=
EXTT8=
EXTT9=
EXTT10=
EXTT11=
EXTT12=
EXTT13=
EXTT14=
EXTT15=
EXTT16=
EXTT17=
EXTT18=
EXTT19=
PLAYORDER=
